<svg width="29" height="28" viewBox="0 0 29 28" fill="none" xmlns="http://www.w3.org/2000/svg">
<path fill-rule="evenodd" clip-rule="evenodd" d="M24.1668 1.16663C26.1689 1.16663 27.7918 2.73363 27.7918 4.66663V23.3333C27.7918 25.2663 26.1689 26.8333 24.1668 26.8333H4.8335C2.83147 26.8333 1.2085 25.2663 1.2085 23.3333V4.66663C1.2085 2.73363 2.83147 1.16663 4.8335 1.16663H24.1668ZM24.1668 3.49996C24.8342 3.49996 25.3752 4.0223 25.3752 4.66663V23.3333C25.3752 23.9776 24.8342 24.5 24.1668 24.5H18.1252V16.3332H20.6339C21.154 16.3332 21.6157 16.0119 21.7803 15.5354L22.3155 13.9849C22.5112 13.4183 22.0744 12.8332 21.4558 12.8332H18.1252V10.4999C18.1252 9.91653 18.7293 9.3332 19.3335 9.3332H21.7502C22.4175 9.3332 22.9585 8.81086 22.9585 8.16653V7.36621C22.9585 6.98935 22.7092 6.65148 22.3317 6.55531C20.7479 6.15173 19.3335 6.15173 19.3335 6.15173C16.3127 6.15173 14.5002 8.16653 14.5002 9.91653V12.8332H12.0835C11.4162 12.8332 10.8752 13.3555 10.8752 13.9998V15.1665C10.8752 15.8109 11.4161 16.3332 12.0835 16.3332H14.5002V24.5H4.8335C4.16616 24.5 3.62516 23.9776 3.62516 23.3333V4.66663C3.62516 4.0223 4.16616 3.49996 4.8335 3.49996H24.1668Z" fill="white"/>
</svg>
