<svg width="29" height="28" viewBox="0 0 29 28" fill="none" xmlns="http://www.w3.org/2000/svg">
<path fill-rule="evenodd" clip-rule="evenodd" d="M14.5 21C18.5041 21 21.75 17.866 21.75 14C21.75 10.134 18.5041 7 14.5 7C10.4959 7 7.25 10.134 7.25 14C7.25 17.866 10.4959 21 14.5 21ZM14.5 18.6667C17.1693 18.6667 19.3333 16.5773 19.3333 14C19.3333 11.4227 17.1693 9.33333 14.5 9.33333C11.8306 9.33333 9.66667 11.4227 9.66667 14C9.66667 16.5773 11.8306 18.6667 14.5 18.6667Z" fill="white"/>
<path d="M21.7498 5.83337C21.0825 5.83337 20.5415 6.35571 20.5415 7.00004C20.5415 7.64437 21.0825 8.16671 21.7498 8.16671C22.4172 8.16671 22.9582 7.64437 22.9582 7.00004C22.9582 6.35571 22.4172 5.83337 21.7498 5.83337Z" fill="white"/>
<path fill-rule="evenodd" clip-rule="evenodd" d="M1.9987 4.9887C1.2085 6.48608 1.2085 8.44626 1.2085 12.3666V15.6333C1.2085 19.5536 1.2085 21.5139 1.9987 23.0112C2.69378 24.3283 3.80288 25.3992 5.16707 26.0703C6.71793 26.8333 8.74812 26.8333 12.8085 26.8333H16.1918C20.2522 26.8333 22.2824 26.8333 23.8332 26.0703C25.1974 25.3992 26.3065 24.3283 27.0016 23.0112C27.7918 21.5139 27.7918 19.5536 27.7918 15.6333V12.3666C27.7918 8.44626 27.7918 6.48608 27.0016 4.9887C26.3065 3.67155 25.1974 2.60069 23.8332 1.92958C22.2824 1.16663 20.2522 1.16663 16.1918 1.16663H12.8085C8.74812 1.16663 6.71793 1.16663 5.16707 1.92958C3.80288 2.60069 2.69378 3.67155 1.9987 4.9887ZM16.1918 3.49996H12.8085C10.7384 3.49996 9.33121 3.50178 8.24351 3.58758C7.18399 3.67116 6.64218 3.82265 6.26421 4.00859C5.35476 4.45601 4.61536 5.16991 4.15196 6.04801C3.95938 6.41294 3.80247 6.93607 3.71591 7.95905C3.62705 9.00925 3.62516 10.3679 3.62516 12.3666V15.6333C3.62516 17.632 3.62705 18.9906 3.71591 20.0408C3.80247 21.0639 3.95938 21.587 4.15196 21.952C4.61536 22.83 5.35476 23.5439 6.26421 23.9913C6.64218 24.1773 7.18399 24.3288 8.24351 24.4123C9.33121 24.4981 10.7384 24.5 12.8085 24.5H16.1918C18.2619 24.5 19.6691 24.4981 20.7568 24.4123C21.8164 24.3288 22.3582 24.1773 22.7362 23.9913C23.6456 23.5439 24.3849 22.83 24.8483 21.952C25.0409 21.587 25.1979 21.0639 25.2844 20.0408C25.3732 18.9906 25.3752 17.632 25.3752 15.6333V12.3666C25.3752 10.3679 25.3732 9.00925 25.2844 7.95905C25.1979 6.93607 25.0409 6.41294 24.8483 6.04801C24.3849 5.16991 23.6456 4.45601 22.7362 4.00859C22.3582 3.82265 21.8164 3.67116 20.7568 3.58758C19.6691 3.50178 18.2619 3.49996 16.1918 3.49996Z" fill="white"/>
</svg>
