<svg width="29" height="28" viewBox="0 0 29 28" fill="none" xmlns="http://www.w3.org/2000/svg">
<path d="M15.0946 0.900415C16.5782 0.87854 18.0508 0.889915 19.5226 0.87854C19.5715 2.65566 20.3183 4.25517 21.5064 5.43992L21.5046 5.43817C22.7833 6.55029 24.4471 7.27129 26.2814 7.39379L26.3068 7.39554V11.802C24.574 11.76 22.9446 11.3742 21.4755 10.7109L21.5499 10.7407C20.8394 10.4108 20.2385 10.0722 19.6676 9.69417L19.7147 9.72391C19.7038 12.9168 19.7256 16.1097 19.692 19.2912C19.5987 20.9125 19.0405 22.3913 18.1451 23.6259L18.1632 23.5988C16.6661 25.669 14.241 27.0279 11.4832 27.1084H11.4705C11.3591 27.1137 11.2277 27.1163 11.0954 27.1163C9.52755 27.1163 8.06214 26.6945 6.81333 25.9622L6.84958 25.9823C4.57671 24.6619 3.00889 22.4027 2.71889 19.775L2.71527 19.7392C2.69261 19.1923 2.68174 18.6454 2.70439 18.1099C3.14846 13.9283 6.77708 10.6934 11.1878 10.6934C11.6835 10.6934 12.1693 10.7345 12.6414 10.8124L12.5907 10.8054C12.6133 12.4233 12.5454 14.042 12.5454 15.6599C12.162 15.526 11.7198 15.4482 11.2585 15.4482C9.56561 15.4482 8.12558 16.4929 7.59271 17.9515L7.58455 17.9778C7.46402 18.3514 7.39424 18.781 7.39424 19.2255C7.39424 19.4058 7.40602 19.5843 7.42777 19.7593L7.42596 19.7383C7.72683 21.5285 9.31639 22.8795 11.2331 22.8795C11.2884 22.8795 11.3428 22.8787 11.3971 22.876H11.389C12.7148 22.8375 13.8658 22.1489 14.5165 21.1313L14.5255 21.1155C14.7675 20.79 14.9333 20.3963 14.9886 19.9684L14.9895 19.9562C15.1028 17.9988 15.0575 16.0528 15.0684 14.0954C15.0792 9.68891 15.0575 5.29291 15.091 0.89779L15.0946 0.900415Z" fill="white"/>
</svg>
